<?xml version="1.0" encoding="UTF-8"?>
<svg width="171px" height="212px" viewBox="0 0 171 212" version="1.1" xmlns="http://www.w3.org/2000/svg" xmlns:xlink="http://www.w3.org/1999/xlink">
    <title>Hatch-Pattern-Background</title>
    <defs>
        <polygon id="path-1" points="0 0 171 0 171 212 0 212"></polygon>
        <polygon id="path-3" points="0.6467 0.752741081 207.9327 0.752741081 207.9327 8 0.6467 8"></polygon>
        <polygon id="path-5" points="0.9142 0.12 237.3322 0.12 237.3322 14.7415 0.9142 14.7415"></polygon>
    </defs>
    <g id="Symbols" stroke="none" stroke-width="1" fill="none" fill-rule="evenodd">
        <g id="Hatch-Pattern-Background">
            <mask id="mask-2" fill="white">
                <use xlink:href="#path-1"></use>
            </mask>
            <use id="Rectangle" fill="#FAEBBA" xlink:href="#path-1"></use>
            <g id="Group-47" mask="url(#mask-2)">
                <g transform="translate(73.000000, 91.000000) rotate(-52.000000) translate(-73.000000, -91.000000) translate(-85.000000, -55.000000)">
                    <path d="M39.0284,63.9682 C36.5894,81.0982 33.7614,98.1552 30.7994,115.1852 C29.3534,123.7072 27.7674,132.2022 26.2474,140.7102 L21.4774,166.1932 L16.4954,191.6352 C14.7594,200.1022 13.0984,208.5832 11.2904,217.0352 C7.7504,233.9552 4.0704,250.8482 0.0004,267.6662 C2.4344,250.5342 5.2594,233.4782 8.2244,216.4482 C9.6684,207.9262 11.2584,199.4312 12.7754,190.9232 L17.5504,165.4412 L22.5384,139.9992 C24.2704,131.5322 25.9374,123.0522 27.7444,114.6002 C31.2864,97.6802 34.9644,80.7872 39.0284,63.9682" id="Fill-1" fill="#F8E8B2"></path>
                    <path d="M66.7081,61.1825 C64.4091,78.5735 61.7241,95.8925 58.9001,113.1885 C57.5261,121.8425 56.0101,130.4715 54.5611,139.1115 L50.0011,164.9955 L45.2301,190.8405 C43.5641,199.4415 41.9741,208.0565 40.2341,216.6445 C36.8341,233.8355 33.2941,250.9995 29.3631,268.0935 C31.6571,250.7025 34.3411,233.3825 37.1651,216.0875 C38.5381,207.4325 40.0591,198.8055 41.5051,190.1635 L46.0701,164.2815 L50.8471,138.4365 C52.5091,129.8345 54.1051,121.2215 55.8431,112.6325 C59.2441,95.4425 62.7821,78.2775 66.7081,61.1825" id="Fill-3" fill="#F8E8B2"></path>
                    <path d="M94.3868,58.3974 C92.2308,76.0474 89.6848,93.6314 87.0028,111.1914 C85.6988,119.9784 84.2528,128.7404 82.8738,137.5134 L78.5258,163.7974 L73.9648,190.0454 C72.3688,198.7814 70.8488,207.5314 69.1788,216.2544 C65.9188,233.7154 62.5188,251.1524 58.7278,268.5214 C60.8788,250.8704 63.4218,233.2864 66.1058,215.7264 C67.4078,206.9394 68.8588,198.1784 70.2348,189.4044 L74.5888,163.1214 L79.1558,136.8744 C80.7468,128.1374 82.2738,119.3894 83.9408,110.6654 C87.2018,93.2044 90.6008,75.7674 94.3868,58.3974" id="Fill-5" fill="#F8E8B2"></path>
                    <path d="M122.0656,55.6122 C120.0506,73.5222 117.6466,91.3692 115.1056,109.1952 C113.8716,118.1132 112.4966,127.0092 111.1876,135.9152 L107.0496,162.6002 L102.6996,189.2502 C101.1736,198.1222 99.7226,207.0052 98.1246,215.8642 C95.0036,233.5952 91.7436,251.3042 88.0906,268.9492 C90.1016,251.0382 92.5036,233.1902 95.0456,215.3652 C96.2776,206.4462 97.6586,197.5522 98.9636,188.6452 L103.1076,161.9612 L107.4626,135.3122 C108.9856,126.4402 110.4416,117.5572 112.0396,108.6982 C115.1606,90.9662 118.4196,73.2582 122.0656,55.6122" id="Fill-7" fill="#F8E8B2"></path>
                    <path d="M149.7452,52.8266 C147.8712,70.9966 145.6082,89.1076 143.2082,107.1986 C142.0442,116.2486 140.7392,125.2776 139.5012,134.3176 L135.5732,161.4026 L131.4332,188.4556 C129.9782,197.4616 128.5982,206.4796 127.0682,215.4736 C124.0882,233.4756 120.9682,251.4566 117.4552,269.3766 C119.3232,251.2056 121.5842,233.0946 123.9862,215.0046 C125.1472,205.9536 126.4582,196.9256 127.6932,187.8866 L131.6262,160.8016 L135.7712,133.7496 C137.2242,124.7426 138.6092,115.7256 140.1372,106.7306 C143.1182,88.7286 146.2372,70.7476 149.7452,52.8266" id="Fill-9" fill="#F8E8B2"></path>
                    <path d="M177.424,50.0414 C175.693,68.4714 173.57,86.8464 171.31,105.2014 C170.217,114.3844 168.983,123.5464 167.815,132.7184 L164.098,160.2054 L160.168,187.6604 C158.782,196.8014 157.473,205.9534 156.013,215.0834 C153.173,233.3564 150.193,251.6084 146.819,269.8044 C148.546,251.3744 150.666,232.9994 152.927,214.6444 C154.018,205.4604 155.258,196.2994 156.423,187.1264 L160.145,159.6414 L164.079,132.1864 C165.462,123.0454 166.778,113.8944 168.236,104.7634 C171.076,86.4914 174.055,68.2384 177.424,50.0414" id="Fill-11" fill="#F8E8B2"></path>
                    <path d="M205.1036,47.2563 C203.5126,65.9463 201.5316,84.5843 199.4126,103.2043 C198.3896,112.5193 197.2256,121.8163 196.1276,131.1203 L192.6226,159.0073 L188.9026,186.8653 C187.5866,196.1413 186.3466,205.4273 184.9576,214.6933 C182.2576,233.2363 179.4166,251.7603 176.1816,270.2323 C177.7676,251.5413 179.7476,232.9033 181.8676,214.2833 C182.8876,204.9683 184.0576,195.6723 185.1526,186.3673 L188.6636,158.4813 L192.3876,130.6243 C193.7006,121.3473 194.9466,112.0623 196.3326,102.7963 C199.0356,84.2533 201.8736,65.7293 205.1036,47.2563" id="Fill-13" fill="#F8E8B2"></path>
                    <path d="M232.7823,44.4706 C231.3333,63.4206 229.4933,82.3226 227.5143,101.2076 C226.5623,110.6546 225.4693,120.0846 224.4403,129.5226 L221.1453,157.8096 L217.6363,186.0706 C216.3913,195.4816 215.2213,204.9016 213.9023,214.3036 C211.3423,233.1166 208.6403,251.9126 205.5463,270.6596 C206.9903,251.7096 208.8283,232.8066 210.8073,213.9226 C211.7583,204.4746 212.8573,195.0466 213.8823,185.6086 L217.1813,157.3216 L220.6963,129.0616 C221.9383,119.6506 223.1143,110.2306 224.4313,100.8286 C226.9933,82.0146 229.6913,63.2196 232.7823,44.4706" id="Fill-15" fill="#F8E8B2"></path>
                    <path d="M260.4611,41.6855 C259.1531,60.8955 257.4541,80.0605 255.6171,99.2115 C254.7351,108.7905 253.7111,118.3535 252.7541,127.9235 L249.6701,156.6115 L246.3721,185.2755 C245.1961,194.8215 244.0971,204.3755 242.8471,213.9135 C240.4271,232.9975 237.8651,252.0645 234.9091,271.0875 C236.2121,251.8775 237.9091,232.7115 239.7481,213.5615 C240.6281,203.9825 241.6571,194.4195 242.6111,184.8495 L245.7001,156.1615 L249.0041,127.4985 C250.1771,117.9525 251.2821,108.3985 252.5291,98.8615 C254.9511,79.7775 257.5101,60.7095 260.4611,41.6855" id="Fill-17" fill="#F8E8B2"></path>
                    <path d="M288.1407,38.9003 C286.9747,58.3703 285.4157,77.7993 283.7197,97.2143 C282.9087,106.9253 281.9537,116.6223 281.0677,126.3253 L278.1947,155.4143 L275.1067,184.4803 C274.0007,194.1613 272.9707,203.8493 271.7917,213.5233 C269.5117,232.8773 267.0897,252.2163 264.2737,271.5153 C265.4347,252.0453 266.9907,232.6153 268.6887,213.2003 C269.4977,203.4893 270.4567,193.7933 271.3407,184.0893 L274.2197,155.0023 L277.3127,125.9363 C278.4147,116.2553 279.4507,106.5673 280.6277,96.8943 C282.9097,77.5393 285.3277,58.1993 288.1407,38.9003" id="Fill-19" fill="#F8E8B2"></path>
                    <path d="M315.8195,36.1152 C314.7955,55.8442 313.3775,75.5372 311.8215,95.2182 C311.0815,105.0612 310.1975,114.8912 309.3815,124.7272 L306.7175,154.2162 L303.8405,183.6852 C302.8055,193.5012 301.8455,203.3232 300.7365,213.1322 C298.5955,232.7572 296.3145,252.3692 293.6365,271.9432 C294.6565,252.2132 296.0715,232.5202 297.6295,212.8402 C298.3675,202.9962 299.2575,193.1672 300.0695,183.3302 L302.7385,153.8422 L305.6215,124.3742 C306.6535,114.5572 307.6185,104.7352 308.7255,94.9262 C310.8675,75.3022 313.1465,55.6902 315.8195,36.1152" id="Fill-21" fill="#F8E8B2"></path>
                    <g id="Group-25" stroke-width="1" fill="none" transform="translate(30.000000, 283.880000)">
                        <mask id="mask-4" fill="white">
                            <use xlink:href="#path-3"></use>
                        </mask>
                        <g id="Clip-24"></g>
                        <path d="M207.9327,0.8748 C190.6307,0.6308 173.3417,0.7818 156.0587,1.0708 C147.4147,1.1778 138.7777,1.4288 130.1367,1.6118 L104.2217,2.3768 L78.3157,3.3558 C69.6817,3.7598 61.0457,4.0868 52.4157,4.5638 C35.1517,5.4398 17.8927,6.4578 0.6467,7.8738 C17.9497,8.1228 35.2377,7.9748 52.5207,7.6838 C61.1637,7.5778 69.8017,7.3218 78.4427,7.1418 L104.3577,6.3718 L130.2637,5.3868 C138.8977,4.9868 147.5327,4.6538 156.1627,4.1788 C173.4267,3.3008 190.6867,2.2858 207.9327,0.8748" id="Fill-23" fill="#F8E8B2" mask="url(#mask-4)"></path>
                    </g>
                    <path d="M244.9718,257.8417 C227.4358,257.4177 209.9088,257.3877 192.3848,257.4967 C183.6218,257.5147 174.8638,257.6747 166.1018,257.7687 L139.8248,258.2627 L113.5518,258.9717 C104.7968,259.2847 96.0388,259.5217 87.2848,259.9097 C69.7768,260.6057 52.2698,261.4437 34.7738,262.6777 C52.3108,263.1077 69.8368,263.1387 87.3618,263.0287 C96.1238,263.0127 104.8828,262.8467 113.6438,262.7567 L139.9208,262.2577 L166.1938,261.5427 C174.9498,261.2327 183.7058,260.9897 192.4598,260.6047 C209.9698,259.9067 227.4758,259.0717 244.9718,257.8417" id="Fill-26" fill="#F8E8B2"></path>
                    <path d="M252.0118,230.9281 C234.2408,230.3241 216.4748,230.1151 198.7108,230.0431 C189.8288,229.9701 180.9488,230.0411 172.0678,230.0441 L145.4268,230.2681 L118.7888,230.7081 C109.9108,230.9301 101.0328,231.0771 92.1558,231.3751 C74.4008,231.8901 56.6478,232.5481 38.9008,233.6031 C56.6718,234.2121 74.4378,234.4241 92.2008,234.4931 C101.0838,234.5681 109.9638,234.4921 118.8448,234.4921 L145.4858,234.2621 L172.1228,233.8181 C181.0008,233.5981 189.8798,233.4461 198.7568,233.1501 C216.5118,232.6341 234.2648,231.9781 252.0118,230.9281" id="Fill-28" fill="#F8E8B2"></path>
                    <path d="M259.0519,204.015 C241.0459,203.231 223.0409,202.841 205.0379,202.59 C196.0359,202.427 187.0339,202.408 178.0329,202.321 L151.0299,202.274 L124.0269,202.443 C115.0269,202.576 106.0259,202.633 97.0259,202.84 C79.0249,203.176 61.0249,203.653 43.0279,204.528 C61.0329,205.317 79.0379,205.708 97.0409,205.958 C106.0429,206.123 115.0449,206.137 124.0459,206.227 L151.0499,206.268 L178.0529,206.094 C187.0529,205.964 196.0539,205.902 205.0539,205.696 C223.0549,205.36 241.0549,204.884 259.0519,204.015" id="Fill-30" fill="#F8E8B2"></path>
                    <path d="M266.0919,177.1015 C247.8509,176.1375 229.6089,175.5675 211.3639,175.1365 C202.2429,174.8835 193.1199,174.7735 183.9989,174.5965 L156.6319,174.2805 L129.2639,174.1795 C120.1419,174.2215 111.0189,174.1885 101.8959,174.3055 C83.6499,174.4605 65.4029,174.7575 47.1539,175.4525 C65.3949,176.4215 83.6379,176.9935 101.8819,177.4235 C111.0029,177.6785 120.1249,177.7825 129.2469,177.9625 L156.6139,178.2735 L183.9819,178.3695 C193.1049,178.3295 202.2279,178.3575 211.3509,178.2425 C229.5969,178.0855 247.8439,177.7905 266.0919,177.1015" id="Fill-32" fill="#F8E8B2"></path>
                    <path d="M273.132,150.1879 C254.656,149.0439 236.175,148.2939 217.691,147.6829 C208.449,147.3399 199.206,147.1399 189.964,146.8729 L162.235,146.2859 L134.501,145.9149 C125.256,145.8669 116.012,145.7439 106.766,145.7709 C88.274,145.7459 69.78,145.8629 51.28,146.3769 C69.757,147.5259 88.238,148.2779 106.722,148.8879 C115.963,149.2329 125.206,149.4269 134.448,149.6969 L162.179,150.2789 L189.911,150.6449 C199.156,150.6949 208.402,150.8129 217.648,150.7879 C236.139,150.8119 254.633,150.6969 273.132,150.1879" id="Fill-34" fill="#F8E8B2"></path>
                    <path d="M280.172,123.2748 C261.461,121.9508 242.741,121.0208 224.018,120.2288 C214.656,119.7958 205.292,119.5058 195.93,119.1488 L167.837,118.2918 L139.738,117.6498 C130.371,117.5128 121.005,117.2988 111.635,117.2358 C92.898,117.0308 74.157,116.9678 55.407,117.3008 C74.118,118.6308 92.838,119.5628 111.562,120.3538 C120.923,120.7878 130.287,121.0718 139.65,121.4328 L167.742,122.2838 L195.841,122.9208 C205.208,123.0608 214.574,123.2688 223.944,123.3338 C242.682,123.5378 261.422,123.6038 280.172,123.2748" id="Fill-36" fill="#F8E8B2"></path>
                    <path d="M287.212,96.3612 C268.267,94.8572 249.308,93.7472 230.344,92.7752 C220.863,92.2522 211.378,91.8722 201.896,91.4252 L173.44,90.2982 L144.976,89.3852 C135.485,89.1582 125.998,88.8552 116.505,88.7012 C97.523,88.3162 78.535,88.0722 59.534,88.2262 C78.48,89.7352 97.439,90.8472 116.401,91.8182 C125.882,92.3422 135.367,92.7172 144.851,93.1682 L173.307,94.2892 L201.771,95.1962 C211.261,95.4262 220.748,95.7252 230.241,95.8802 C249.224,96.2642 268.211,96.5092 287.212,96.3612" id="Fill-38" fill="#F8E8B2"></path>
                    <path d="M294.2521,69.4482 C275.0711,67.7632 255.8741,66.4732 236.6701,65.3222 C227.0701,64.7082 217.4641,64.2392 207.8601,63.7012 L179.0421,62.3032 L150.2131,61.1212 C140.6011,60.8032 130.9911,60.4102 121.3751,60.1672 C102.1471,59.6012 82.9121,59.1772 63.6611,59.1502 C82.8411,60.8402 102.0381,62.1322 121.2421,63.2832 C130.8421,63.8982 140.4481,64.3622 150.0521,64.9032 L178.8711,66.2952 L207.6991,67.4712 C217.3131,67.7922 226.9221,68.1802 236.5381,68.4262 C255.7671,68.9902 275.0011,69.4162 294.2521,69.4482" id="Fill-40" fill="#F8E8B2"></path>
                    <path d="M301.2921,42.5346 C281.8761,40.6706 262.4401,39.1996 242.9971,37.8676 C233.2771,37.1646 223.5501,36.6046 213.8261,35.9776 L184.6441,34.3096 L155.4501,32.8566 C145.7151,32.4496 135.9841,31.9656 126.2451,31.6326 C106.7711,30.8866 87.2901,30.2826 67.7871,30.0756 C87.2031,31.9446 106.6391,33.4176 126.0821,34.7476 C135.8021,35.4526 145.5291,36.0076 155.2531,36.6386 L184.4361,38.3006 L213.6291,39.7476 C223.3641,40.1586 233.0961,40.6366 242.8351,40.9716 C262.3091,41.7166 281.7901,42.3226 301.2921,42.5346" id="Fill-42" fill="#F8E8B2"></path>
                    <g id="Group-46" stroke-width="1" fill="none" transform="translate(71.000000, 0.880000)">
                        <mask id="mask-6" fill="white">
                            <use xlink:href="#path-5"></use>
                        </mask>
                        <g id="Clip-45"></g>
                        <path d="M237.3322,14.7415 C217.6822,12.6975 198.0072,11.0465 178.3232,9.5345 C168.4842,8.7415 158.6362,8.0915 148.7922,7.3735 L119.2462,5.4355 L89.6872,3.7125 C79.8302,3.2145 69.9782,2.6405 60.1152,2.2175 C40.3952,1.2915 20.6672,0.5075 0.9142,0.1195 C20.5642,2.1695 40.2392,3.8225 59.9222,5.3325 C69.7622,6.1275 79.6102,6.7725 89.4542,7.4925 L119.0002,9.4255 L148.5592,11.1425 C158.4162,11.6435 168.2692,12.2125 178.1322,12.6375 C197.8512,13.5625 217.5792,14.3485 237.3322,14.7415" id="Fill-44" fill="#F8E8B2" mask="url(#mask-6)"></path>
                    </g>
                </g>
            </g>
        </g>
    </g>
</svg>